<?xml version="1.0" encoding="utf-8"?>
<!-- Generator: Adobe Illustrator 14.0.0, SVG Export Plug-In . SVG Version: 6.00 Build 43363)  -->
<!DOCTYPE svg PUBLIC "-//W3C//DTD SVG 1.1//EN" "http://www.w3.org/Graphics/SVG/1.1/DTD/svg11.dtd">
<svg version="1.1" id="Layer_1" xmlns="http://www.w3.org/2000/svg" xmlns:xlink="http://www.w3.org/1999/xlink" x="0px" y="0px"
	 width="164.841px" height="50px" viewBox="0 0 164.841 50" enable-background="new 0 0 164.841 50" xml:space="preserve">
<path id="headphones-12-icon" fill="#FFFFFF" d="M11.904,43.646H6.346c-2.221,0-4.021-1.801-4.021-4.022v-9.939
	c0-2.221,1.801-4.021,4.021-4.021h5.482c-1.64,2.547-2.625,5.61-2.625,8.936C9.204,37.953,10.208,41.058,11.904,43.646z
	 M9.026,22.559H5.529c0.45-11.861,8.715-21.086,20.469-21.086c11.753,0,20.017,9.225,20.468,21.086h-3.496
	c-0.506-9.701-8.171-15.23-16.972-15.212C17.197,7.328,9.531,12.857,9.026,22.559z M45.648,25.662c2.222,0,4.021,1.799,4.021,4.021
	v9.94c0,2.221-1.801,4.021-4.021,4.021H40.09c1.693-2.584,2.7-5.689,2.7-9.049c0-3.232-0.934-6.305-2.626-8.936h5.483V25.662z
	 M25.997,21.308c-7.371,0-13.346,5.976-13.346,13.346s5.975,13.345,13.346,13.345c7.37,0,13.346-5.975,13.346-13.345
	S33.367,21.308,25.997,21.308z M27.362,40.188v-5.534l-8.009,5.534V29.117l8.009,5.537v-5.537l8.007,5.537L27.362,40.188z"/>
<g>
	<path fill="#FFFFFF" d="M52.745,12.17c-0.406,0-0.749-0.139-1.03-0.42c-0.28-0.281-0.421-0.625-0.421-1.03s0.141-0.749,0.421-1.03
		c0.281-0.281,0.624-0.421,1.03-0.421h16.239c0.403,0,0.747,0.14,1.028,0.421c0.28,0.281,0.421,0.625,0.421,1.03
		s-0.141,0.749-0.421,1.03c-0.281,0.281-0.625,0.42-1.028,0.42h-6.646v25.553c0,0.406-0.141,0.749-0.422,1.029
		c-0.28,0.281-0.624,0.42-1.029,0.42c-0.404,0-0.749-0.141-1.028-0.42c-0.281-0.281-0.423-0.625-0.423-1.029V12.17H52.745z"/>
	<path fill="#FFFFFF" d="M70.763,17.879c0-0.404,0.142-0.748,0.421-1.029c0.281-0.281,0.624-0.421,1.03-0.421
		c0.405,0,0.748,0.14,1.029,0.421s0.421,0.625,0.421,1.029v2.293c0.998-1.09,2.2-1.988,3.604-2.69
		c1.404-0.702,2.934-1.053,4.587-1.053c0.498,0,0.896,0.14,1.192,0.421c0.297,0.281,0.445,0.625,0.445,1.029
		c0,0.406-0.148,0.75-0.445,1.031c-0.296,0.28-0.694,0.42-1.192,0.42c-1.122,0-2.169,0.22-3.136,0.655
		c-0.968,0.438-1.817,1.03-2.551,1.778c-0.733,0.749-1.326,1.607-1.778,2.574c-0.453,0.968-0.693,1.982-0.726,3.041v10.344
		c0,0.406-0.14,0.749-0.421,1.029c-0.281,0.279-0.624,0.421-1.029,0.421c-0.406,0-0.749-0.142-1.03-0.421
		c-0.279-0.281-0.421-0.625-0.421-1.029V17.879L70.763,17.879z"/>
	<path fill="#FFFFFF" d="M86.534,29.252c0.156,0.998,0.482,1.927,0.982,2.785c0.498,0.857,1.114,1.599,1.85,2.223
		c0.731,0.625,1.566,1.115,2.503,1.474c0.937,0.359,1.919,0.539,2.948,0.539c1.153,0,2.229-0.211,3.229-0.632
		c0.998-0.421,1.888-1.006,2.667-1.755c0.281-0.281,0.624-0.421,1.03-0.421c0.404,0,0.749,0.14,1.028,0.421
		c0.281,0.28,0.422,0.625,0.422,1.028c0,0.406-0.141,0.75-0.422,1.029c-1.028,1.155-2.191,1.975-3.485,2.457
		c-1.295,0.484-2.784,0.727-4.471,0.727c-1.56,0-3.018-0.281-4.375-0.842c-1.356-0.562-2.551-1.342-3.579-2.34
		c-1.03-0.998-1.843-2.184-2.435-3.558c-0.594-1.372-0.889-2.87-0.889-4.493c0-1.561,0.287-3.018,0.865-4.375
		c0.576-1.357,1.371-2.542,2.387-3.557c1.014-1.014,2.215-1.825,3.604-2.434c1.389-0.609,2.895-0.943,4.517-1.007
		c1.467,0,2.878,0.297,4.234,0.89c1.357,0.592,2.552,1.403,3.58,2.433c1.029,1.03,1.855,2.223,2.48,3.58
		c0.624,1.356,0.937,2.815,0.937,4.376c0,0.468-0.156,0.826-0.469,1.076c-0.312,0.25-0.64,0.375-0.982,0.375H86.534L86.534,29.252z
		 M103.102,26.351c-0.188-0.967-0.53-1.872-1.029-2.714s-1.115-1.568-1.85-2.176c-0.733-0.608-1.56-1.092-2.479-1.451
		c-0.92-0.358-1.896-0.538-2.925-0.538s-2.005,0.18-2.926,0.538c-0.92,0.359-1.747,0.842-2.479,1.451
		c-0.733,0.608-1.342,1.334-1.824,2.176c-0.483,0.842-0.818,1.748-1.007,2.714H103.102z"/>
	<path fill="#FFFFFF" d="M108.81,10.72c0-0.405,0.14-0.749,0.421-1.03s0.624-0.421,1.029-0.421c0.404,0,0.749,0.14,1.028,0.421
		c0.281,0.281,0.422,0.625,0.422,1.03v10.108c1.029-1.123,2.263-2.099,3.697-2.926c1.436-0.826,3.025-1.271,4.773-1.334
		c1.497,0,2.925,0.305,4.28,0.913c1.357,0.608,2.552,1.429,3.58,2.457c1.03,1.03,1.85,2.231,2.457,3.604
		c0.608,1.373,0.913,2.838,0.913,4.398c0,1.529-0.297,2.973-0.89,4.329s-1.396,2.55-2.41,3.58c-1.014,1.028-2.207,1.841-3.58,2.435
		c-1.373,0.592-2.854,0.889-4.445,0.889c-1.685,0-3.244-0.32-4.68-0.959s-2.668-1.521-3.697-2.645v2.153
		c0,0.405-0.141,0.749-0.422,1.028c-0.279,0.281-0.624,0.422-1.028,0.422c-0.405,0-0.748-0.141-1.029-0.422
		c-0.281-0.279-0.421-0.623-0.421-1.028L108.81,10.72L108.81,10.72z M111.711,28.315c0.03,1.123,0.28,2.169,0.748,3.136
		c0.47,0.967,1.077,1.811,1.826,2.527c0.748,0.719,1.621,1.287,2.62,1.708c0.998,0.421,2.06,0.632,3.183,0.632
		c1.153,0,2.246-0.218,3.275-0.654c1.03-0.438,1.927-1.037,2.691-1.803c0.764-0.765,1.363-1.652,1.802-2.668
		c0.437-1.013,0.655-2.098,0.655-3.252s-0.22-2.246-0.655-3.275c-0.438-1.029-1.038-1.926-1.802-2.691
		c-0.766-0.764-1.661-1.364-2.691-1.803c-1.029-0.437-2.122-0.654-3.275-0.654c-1.123,0-2.185,0.21-3.183,0.631
		c-0.999,0.421-1.872,1.006-2.62,1.756c-0.749,0.748-1.356,1.637-1.826,2.666c-0.468,1.029-0.718,2.153-0.748,3.369V28.315z"/>
	<path fill="#FFFFFF" d="M133.707,10.72c0-0.405,0.141-0.749,0.421-1.03s0.624-0.421,1.029-0.421s0.749,0.14,1.029,0.421
		c0.281,0.281,0.422,0.625,0.422,1.03v27.003c0,0.406-0.141,0.749-0.422,1.029c-0.28,0.281-0.624,0.42-1.029,0.42
		s-0.749-0.141-1.029-0.42c-0.28-0.281-0.421-0.625-0.421-1.029V10.72z"/>
	<path fill="#FFFFFF" d="M141.944,29.252c0.155,0.998,0.482,1.927,0.982,2.785c0.498,0.857,1.114,1.599,1.849,2.223
		c0.732,0.625,1.567,1.115,2.504,1.474c0.936,0.359,1.919,0.539,2.948,0.539c1.153,0,2.229-0.211,3.229-0.632
		c0.997-0.421,1.888-1.006,2.667-1.755c0.281-0.281,0.624-0.421,1.029-0.421s0.749,0.14,1.03,0.421
		c0.279,0.28,0.421,0.625,0.421,1.028c0,0.406-0.142,0.75-0.421,1.029c-1.03,1.155-2.192,1.975-3.487,2.457
		c-1.295,0.484-2.784,0.727-4.469,0.727c-1.562,0-3.02-0.281-4.376-0.842c-1.356-0.562-2.55-1.342-3.58-2.34
		c-1.029-0.998-1.841-2.184-2.435-3.558c-0.593-1.372-0.889-2.87-0.889-4.493c0-1.561,0.288-3.018,0.865-4.375
		s1.373-2.542,2.388-3.557c1.013-1.014,2.214-1.825,3.604-2.434c1.388-0.609,2.894-0.943,4.517-1.007
		c1.466,0,2.878,0.297,4.235,0.89c1.355,0.592,2.55,1.403,3.58,2.433c1.028,1.03,1.854,2.223,2.479,3.58
		c0.623,1.356,0.937,2.815,0.937,4.376c0,0.468-0.156,0.826-0.469,1.076c-0.312,0.25-0.641,0.375-0.981,0.375H141.944
		L141.944,29.252z M158.51,26.351c-0.188-0.967-0.531-1.872-1.029-2.714c-0.5-0.842-1.116-1.568-1.85-2.176
		c-0.732-0.608-1.561-1.092-2.479-1.451c-0.921-0.358-1.896-0.538-2.925-0.538s-2.005,0.18-2.925,0.538
		c-0.921,0.359-1.748,0.842-2.48,1.451c-0.732,0.607-1.342,1.334-1.825,2.176s-0.818,1.748-1.006,2.714H158.51z"/>
</g>
</svg>
